{"title":"Sometimes a Great Notion  (Action Drama 1970)  Paul Newman, Henr","uid":9211230,"size":906276810,"categoryP":"video","categoryS":"movies","magnet":"?xt=urn:btih:98d0ebd6a0465add95b38d92f8672f4a9eefdfe3&amp;dn=Sometimes+a+Great+Notion++%28Action+Drama+1970%29++Paul+Newman%2C+Henr&amp;tr=udp%3A%2F%2Ftracker.openbittorrent.com%3A80&amp;tr=udp%3A%2F%2Fopen.demonii.com%3A1337&amp;tr=udp%3A%2F%2Ftracker.coppersurfer.tk%3A6969&amp;tr=udp%3A%2F%2Fexodus.desync.com%3A6969","seeders":4,"leechers":2,"uploader":"BurtonW","files":1,"time":1384788614,"description":"VERY good quality film!\n\nStoryline\n\nHank Stamper and his father, Henry Stamper own and operate the family business by cutting and shipping logs in Oregon. The town is furious when they continue working despite the town going broke and the other loggers go on strike ordering the Stampers to stop, however Hank continues to push his family on cutting more trees. Hank's wife wishes he would stop and hopes that they can spend more time together. When Hank's half trouble making brother Leland comes to work for them, more trouble starts.\n\nHave at it Bob.\n\n\nGeneral:\nComplete name            Sometimes a Great Notion  (Action Drama 1970)  Paul Newman, Henry Fonda &amp; Lee Remick.mp4\nFormat                         : MPEG-4\nFormat profile                 : Base Media / Version 2\nCodec ID                       : mp42\nFile size                      : 864 MiB\nDuration                       : 1h 54mn\nOverall bit rate mode          : Variable\nOverall bit rate               : 1 055 Kbps\nEncoded date                   : UTC 2013-09-05 00:09:01\nTagged date                    : UTC 2013-09-05 02:39:53\nWriting application            : Deleted\n\nVideo:\nID                             : 1\nFormat                         : AVC\nFormat/Info                    : Advanced Video Codec\nFormat profile                 : &lt;a class=&quot;__cf_email__&quot; href=&quot;/cdn-cgi/l/email-protection&quot; data-cfemail=&quot;2e634f47406e621a001e&quot;&gt;[email&amp;#160;protected]&lt;/a&gt;&lt;script cf-hash='f9e31' type=&quot;text/javascript&quot;&gt;\n/* &lt;![CDATA[ */!function(){try{var t=&quot;currentScript&quot;in document?document.currentScript:function(){for(var t=document.getElementsByTagName(&quot;script&quot;),e=t.length;e--;)if(t[e].getAttribute(&quot;cf-hash&quot;))return t[e]}();if(t&amp;&amp;t.previousSibling){var e,r,n,i,c=t.previousSibling,a=c.getAttribute(&quot;data-cfemail&quot;);if(a){for(e=&quot;&quot;,r=parseInt(a.substr(0,2),16),n=2;a.length-n;n+=2)i=parseInt(a.substr(n,2),16)^r,e+=String.fromCharCode(i);e=document.createTextNode(e),c.parentNode.replaceChild(e,c)}}}catch(u){}}();/* ]]&gt; */&lt;/script&gt;\nFormat settings, CABAC         : Yes\nFormat settings, ReFrames      : 4 frames\nCodec ID                       : avc1\nCodec ID/Info                  : Advanced Video Coding\nDuration                       : 1h 54mn\nBit rate mode                  : Variable\nBit rate                       : 900 Kbps\nWidth                          : 1 280 pixels\nHeight                         : 544 pixels\nDisplay aspect ratio           : 2.35:1\nFrame rate mode                : Variable\nFrame rate                     : 23.976 fps\nMinimum frame rate             : 23.256 fps\nMaximum frame rate             : 25.000 fps\nColor space                    : YUV\nChroma subsampling             : 4:2:0\nBit depth                      : 8 bits\nScan type                      : Progressive\nBits/(Pixel*Frame)             : 0.054\nStream size                    : 739 MiB (85%)\nWriting library                : x264 core 130 r2273 b3065e6\nEncoded date                   : UTC 2013-09-05 00:09:01\nTagged date                    : UTC 2013-09-05 02:39:53\nColor primaries                : BT.709\nTransfer characteristics       : BT.709\nMatrix coefficients            : BT.709\n\nAudio:\nID                             : 2\nFormat                         : AAC\nFormat/Info                    : Advanced Audio Codec\nFormat profile                 : LC\nCodec ID                       : 40\nDuration                       : 1h 54mn\nBit rate mode                  : Variable\nBit rate                       : 147 Kbps\nMaximum bit rate               : 191 Kbps\nChannel(s)                     : 2 channels\nChannel positions              : Front: L R\nSampling rate                  : 48.0 KHz\nCompression mode               : Lossy\nDelay relative to video        : 83ms\nStream size                    : 121 MiB (14%)\nLanguage                       : English\nEncoded date                   : UTC 2013-09-05 00:09:01\nTagged date                    : UTC 2013-09-05 02:39:52\n\nText::\nID                             : 3\nFormat                         : Timed text\nMuxing mode                    : sbtl\nCodec ID                       : tx3g\nDuration                       : 1h 53mn\nBit rate mode                  : Variable\nBit rate                       : 55 bps\nDelay relative to video        : 83ms\nStream size                    : 45.4 KiB (0%)\nLanguage                       : English\nEncoded date                   : UTC 2013-09-05 00:09:01\nTagged date                    : UTC 2013-09-05 02:39:52\n","torrent":{"xt":"urn:btih:98d0ebd6a0465add95b38d92f8672f4a9eefdfe3","amp;dn":"Sometimes+a+Great+Notion++%28Action+Drama+1970%29++Paul+Newman%2C+Henr","amp;tr":["udp%3A%2F%2Ftracker.openbittorrent.com%3A80","udp%3A%2F%2Fopen.demonii.com%3A1337","udp%3A%2F%2Ftracker.coppersurfer.tk%3A6969","udp%3A%2F%2Fexodus.desync.com%3A6969"],"infoHash":"98d0ebd6a0465add95b38d92f8672f4a9eefdfe3","infoHashBuffer":{"type":"Buffer","data":[152,208,235,214,160,70,90,221,149,179,141,146,248,103,47,74,158,239,223,227]},"announce":[],"urlList":[]}}